<svg xmlns="http://www.w3.org/2000/svg" xmlns:xlink="http://www.w3.org/1999/xlink" version="1.1" width="256" height="256" viewBox="0 0 256 256" xml:space="preserve">
<desc>Created with Fabric.js 1.7.22</desc>
<defs>
</defs>
<g transform="translate(128 128) scale(0.72 0.72)" style="">
	<g style="stroke: none; stroke-width: 0; stroke-dasharray: none; stroke-linecap: butt; stroke-linejoin: miter; stroke-miterlimit: 10; fill: none; fill-rule: nonzero; opacity: 1;" transform="translate(-175.05 -175.05000000000004) scale(3.89 3.89)" >
	<circle cx="45" cy="45" r="45" style="stroke: none; stroke-width: 1; stroke-dasharray: none; stroke-linecap: butt; stroke-linejoin: miter; stroke-miterlimit: 10; fill: rgb(106,59,135); fill-rule: nonzero; opacity: 1;" transform="  matrix(1 0 0 1 0 0) "/>
	<path d="M 52.953 50.324 L 52.953 50.324 L 41.977 61.3 l 0.644 7.292 c 0.052 0.585 0.763 0.843 1.178 0.428 l 3.705 -3.705 C 51.449 61.371 53.444 55.881 52.953 50.324 z" style="stroke: none; stroke-width: 1; stroke-dasharray: none; stroke-linecap: butt; stroke-linejoin: miter; stroke-miterlimit: 10; fill: rgb(253,71,85); fill-rule: nonzero; opacity: 1;" transform=" matrix(1 0 0 1 0 0) " stroke-linecap="round" />
	<path d="M 39.676 37.047 L 39.676 37.047 c -5.558 -0.491 -11.047 1.504 -14.993 5.449 l -3.705 3.705 c -0.415 0.415 -0.157 1.126 0.428 1.178 l 7.292 0.644 L 39.676 37.047 z" style="stroke: none; stroke-width: 1; stroke-dasharray: none; stroke-linecap: butt; stroke-linejoin: miter; stroke-miterlimit: 10; fill: rgb(253,71,85); fill-rule: nonzero; opacity: 1;" transform=" matrix(1 0 0 1 0 0) " stroke-linecap="round" />
	<path d="M 35.75 62.401 l -8.151 -8.151 c -0.647 -0.647 -0.489 -1.736 0.317 -2.171 l 3.141 -1.698 l 8.563 8.563 l -1.698 3.141 C 37.486 62.89 36.398 63.049 35.75 62.401 z" style="stroke: none; stroke-width: 1; stroke-dasharray: none; stroke-linecap: butt; stroke-linejoin: miter; stroke-miterlimit: 10; fill: rgb(253,71,85); fill-rule: nonzero; opacity: 1;" transform=" matrix(1 0 0 1 0 0) " stroke-linecap="round" />
	<path d="M 34.29 60.941 c -0.84 4.751 -9.416 7.201 -12.489 7.259 c 0.058 -3.073 2.508 -11.649 7.259 -12.489 L 34.29 60.941 z" style="stroke: none; stroke-width: 1; stroke-dasharray: none; stroke-linecap: butt; stroke-linejoin: miter; stroke-miterlimit: 10; fill: rgb(247,205,72); fill-rule: nonzero; opacity: 1;" transform=" matrix(1 0 0 1 0 0) " stroke-linecap="round" />
	<path d="M 55.789 25.163 c -4.621 1.844 -8.832 4.602 -12.362 8.133 L 28.7 48.023 L 41.977 61.3 l 14.727 -14.727 c 3.531 -3.531 6.289 -7.742 8.133 -12.362 L 55.789 25.163 z" style="stroke: none; stroke-width: 1; stroke-dasharray: none; stroke-linecap: butt; stroke-linejoin: miter; stroke-miterlimit: 10; fill: rgb(226,222,226); fill-rule: nonzero; opacity: 1;" transform=" matrix(1 0 0 1 0 0) " stroke-linecap="round" />
	<path d="M 29.159 17.951 L 29.159 17.951 c -0.639 0 -1.157 -0.518 -1.157 -1.157 v 0 c 0 -0.152 -0.123 -0.276 -0.276 -0.276 h -0.584 c -0.152 0 -0.276 0.123 -0.276 0.276 v 0 c 0 0.639 -0.518 1.157 -1.157 1.157 h 0 c -0.152 0 -0.276 0.123 -0.276 0.276 v 0.584 c 0 0.152 0.123 0.276 0.276 0.276 h 0 c 0.639 0 1.157 0.518 1.157 1.157 v 0 c 0 0.152 0.123 0.276 0.276 0.276 h 0.584 c 0.152 0 0.276 -0.123 0.276 -0.276 v 0 c 0 -0.639 0.518 -1.157 1.157 -1.157 h 0 c 0.152 0 0.276 -0.123 0.276 -0.276 v -0.584 C 29.434 18.074 29.311 17.951 29.159 17.951 z" style="stroke: none; stroke-width: 1; stroke-dasharray: none; stroke-linecap: butt; stroke-linejoin: miter; stroke-miterlimit: 10; fill: rgb(247,205,72); fill-rule: nonzero; opacity: 1;" transform=" matrix(1 0 0 1 0 0) " stroke-linecap="round" />
	<path d="M 53.159 9.951 L 53.159 9.951 c -0.639 0 -1.157 -0.518 -1.157 -1.157 v 0 c 0 -0.152 -0.123 -0.276 -0.276 -0.276 h -0.584 c -0.152 0 -0.276 0.123 -0.276 0.276 v 0 c 0 0.639 -0.518 1.157 -1.157 1.157 h 0 c -0.152 0 -0.276 0.123 -0.276 0.276 v 0.584 c 0 0.152 0.123 0.276 0.276 0.276 h 0 c 0.639 0 1.157 0.518 1.157 1.157 v 0 c 0 0.152 0.123 0.276 0.276 0.276 h 0.584 c 0.152 0 0.276 -0.123 0.276 -0.276 v 0 c 0 -0.639 0.518 -1.157 1.157 -1.157 l 0 0 c 0.152 0 0.276 -0.123 0.276 -0.276 v -0.584 C 53.434 10.074 53.311 9.951 53.159 9.951 z" style="stroke: none; stroke-width: 1; stroke-dasharray: none; stroke-linecap: butt; stroke-linejoin: miter; stroke-miterlimit: 10; fill: rgb(247,205,72); fill-rule: nonzero; opacity: 1;" transform=" matrix(1 0 0 1 0 0) " stroke-linecap="round" />
	<path d="M 17.159 37.951 L 17.159 37.951 c -0.639 0 -1.157 -0.518 -1.157 -1.157 v 0 c 0 -0.152 -0.123 -0.276 -0.276 -0.276 h -0.584 c -0.152 0 -0.276 0.123 -0.276 0.276 v 0 c 0 0.639 -0.518 1.157 -1.157 1.157 h 0 c -0.152 0 -0.276 0.123 -0.276 0.276 v 0.584 c 0 0.152 0.123 0.276 0.276 0.276 h 0 c 0.639 0 1.157 0.518 1.157 1.157 v 0 c 0 0.152 0.123 0.276 0.276 0.276 h 0.584 c 0.152 0 0.276 -0.123 0.276 -0.276 v 0 c 0 -0.639 0.518 -1.157 1.157 -1.157 h 0 c 0.152 0 0.276 -0.123 0.276 -0.276 v -0.584 C 17.434 38.074 17.311 37.951 17.159 37.951 z" style="stroke: none; stroke-width: 1; stroke-dasharray: none; stroke-linecap: butt; stroke-linejoin: miter; stroke-miterlimit: 10; fill: rgb(247,205,72); fill-rule: nonzero; opacity: 1;" transform=" matrix(1 0 0 1 0 0) " stroke-linecap="round" />
	<path d="M 50.687 77.856 L 50.687 77.856 c -0.639 0 -1.157 -0.518 -1.157 -1.157 v 0 c 0 -0.152 -0.123 -0.276 -0.276 -0.276 H 48.67 c -0.152 0 -0.276 0.123 -0.276 0.276 v 0 c 0 0.639 -0.518 1.157 -1.157 1.157 h 0 c -0.152 0 -0.276 0.123 -0.276 0.276 v 0.584 c 0 0.152 0.123 0.276 0.276 0.276 h 0 c 0.639 0 1.157 0.518 1.157 1.157 l 0 0 c 0 0.152 0.123 0.276 0.276 0.276 h 0.584 c 0.152 0 0.276 -0.123 0.276 -0.276 l 0 0 c 0 -0.639 0.518 -1.157 1.157 -1.157 h 0 c 0.152 0 0.276 -0.123 0.276 -0.276 v -0.584 C 50.962 77.98 50.839 77.856 50.687 77.856 z" style="stroke: none; stroke-width: 1; stroke-dasharray: none; stroke-linecap: butt; stroke-linejoin: miter; stroke-miterlimit: 10; fill: rgb(247,205,72); fill-rule: nonzero; opacity: 1;" transform=" matrix(1 0 0 1 0 0) " stroke-linecap="round" />
	<path d="M 74.282 64.235 L 74.282 64.235 c -0.639 0 -1.157 -0.518 -1.157 -1.157 v 0 c 0 -0.152 -0.123 -0.276 -0.276 -0.276 h -0.584 c -0.152 0 -0.276 0.123 -0.276 0.276 v 0 c 0 0.639 -0.518 1.157 -1.157 1.157 h 0 c -0.152 0 -0.276 0.123 -0.276 0.276 v 0.584 c 0 0.152 0.123 0.276 0.276 0.276 h 0 c 0.639 0 1.157 0.518 1.157 1.157 l 0 0 c 0 0.152 0.123 0.276 0.276 0.276 h 0.584 c 0.152 0 0.276 -0.123 0.276 -0.276 l 0 0 c 0 -0.639 0.518 -1.157 1.157 -1.157 h 0 c 0.152 0 0.276 -0.123 0.276 -0.276 V 64.51 C 74.558 64.358 74.434 64.235 74.282 64.235 z" style="stroke: none; stroke-width: 1; stroke-dasharray: none; stroke-linecap: butt; stroke-linejoin: miter; stroke-miterlimit: 10; fill: rgb(247,205,72); fill-rule: nonzero; opacity: 1;" transform=" matrix(1 0 0 1 0 0) " stroke-linecap="round" />
	<path d="M 77.282 43.931 L 77.282 43.931 c -0.639 0 -1.157 -0.518 -1.157 -1.157 v 0 c 0 -0.152 -0.123 -0.276 -0.276 -0.276 h -0.584 c -0.152 0 -0.276 0.123 -0.276 0.276 v 0 c 0 0.639 -0.518 1.157 -1.157 1.157 h 0 c -0.152 0 -0.276 0.123 -0.276 0.276 v 0.584 c 0 0.152 0.123 0.276 0.276 0.276 h 0 c 0.639 0 1.157 0.518 1.157 1.157 l 0 0 c 0 0.152 0.123 0.276 0.276 0.276 h 0.584 c 0.152 0 0.276 -0.123 0.276 -0.276 l 0 0 c 0 -0.639 0.518 -1.157 1.157 -1.157 h 0 c 0.152 0 0.276 -0.123 0.276 -0.276 v -0.584 C 77.558 44.054 77.434 43.931 77.282 43.931 z" style="stroke: none; stroke-width: 1; stroke-dasharray: none; stroke-linecap: butt; stroke-linejoin: miter; stroke-miterlimit: 10; fill: rgb(247,205,72); fill-rule: nonzero; opacity: 1;" transform=" matrix(1 0 0 1 0 0) " stroke-linecap="round" />
	<circle cx="62.83" cy="57.17" r="1" style="stroke: none; stroke-width: 1; stroke-dasharray: none; stroke-linecap: butt; stroke-linejoin: miter; stroke-miterlimit: 10; fill: rgb(249,249,249); fill-rule: nonzero; opacity: 1;" transform="  matrix(1 0 0 1 0 0) "/>
	<circle cx="10.83" cy="55.17" r="1" style="stroke: none; stroke-width: 1; stroke-dasharray: none; stroke-linecap: butt; stroke-linejoin: miter; stroke-miterlimit: 10; fill: rgb(249,249,249); fill-rule: nonzero; opacity: 1;" transform="  matrix(1 0 0 1 0 0) "/>
	<circle cx="43.83" cy="21.17" r="1" style="stroke: none; stroke-width: 1; stroke-dasharray: none; stroke-linecap: butt; stroke-linejoin: miter; stroke-miterlimit: 10; fill: rgb(249,249,249); fill-rule: nonzero; opacity: 1;" transform="  matrix(1 0 0 1 0 0) "/>
	<path d="M 64.725 34.475 c 0.366 -0.897 0.711 -1.804 1.006 -2.731 l 3.493 -10.968 l -10.968 3.493 c -0.927 0.295 -1.834 0.64 -2.732 1.006 L 64.725 34.475 z" style="stroke: none; stroke-width: 1; stroke-dasharray: none; stroke-linecap: butt; stroke-linejoin: miter; stroke-miterlimit: 10; fill: rgb(253,71,85); fill-rule: nonzero; opacity: 1;" transform=" matrix(1 0 0 1 0 0) " stroke-linecap="round" />
	<circle cx="52.832" cy="37.172" r="3.812" style="stroke: none; stroke-width: 1; stroke-dasharray: none; stroke-linecap: butt; stroke-linejoin: miter; stroke-miterlimit: 10; fill: rgb(253,71,85); fill-rule: nonzero; opacity: 1;" transform="  matrix(1 0 0 1 0 0) "/>
</g>
</g>
</svg>